<svg width="278" height="400" viewBox="0 0 278 400" fill="none" xmlns="http://www.w3.org/2000/svg">
<path d="M229.768 316C214.268 314.5 182.768 300 182.768 300C182.768 300 173.768 249 139.768 300C105.768 351 236.768 359 236.768 359C236.768 359 238.268 398 263.268 396C288.268 394 275.268 335 268.268 323.5C261.268 312 245.268 317.5 229.768 316Z" fill="#B75501"/>
<path d="M94.5727 188.5C110.073 200.5 146.573 158 146.573 158L153.573 209C153.573 209 101.073 238.5 79.5727 224.5C58.0727 210.5 36.0727 179 62.0727 166C88.0727 153 79.0727 176.5 94.5727 188.5Z" fill="#B75501"/>
<path d="M225.768 319C210.268 317.5 178.768 303 178.768 303C178.768 303 169.768 252 135.768 303C101.768 354 232.768 362 232.768 362C232.768 362 234.268 401 259.268 399C284.268 397 271.268 338 264.268 326.5C257.268 315 241.268 320.5 225.768 319Z" fill="#FF9233"/>
<path d="M216.268 317C212.268 316.5 178.768 303 178.768 303C178.768 303 166.268 267 135.768 303C105.268 339 152.268 344.5 165.268 349.5C178.268 354.5 220.268 317.5 216.268 317Z" fill="#E68736"/>
<path d="M117.768 299.5C139.268 284.5 139.268 166.5 139.268 166.5L163.268 155C163.268 155 197.268 160.971 235.268 155C273.268 149.029 277.268 179 277.268 190.5C277.268 202 253.268 253.5 235.268 236C217.268 218.5 246.268 211.5 240.768 201C235.268 190.5 210.268 211 210.268 211C210.268 211 214.268 315 181.268 333C148.268 351 31.2677 359.5 15.2677 353C-0.732347 346.5 -7.23227 283.84 24.7677 280C56.7676 276.16 27.2676 311 34.7676 315C42.2676 319 96.2677 314.5 117.768 299.5Z" fill="#B75501"/>
<circle cx="166.268" cy="110" r="52" fill="#B75601"/>
<circle cx="161.268" cy="107" r="52" fill="#FF9233"/>
<path d="M115.768 294.5C137.268 279.5 143.268 153 143.268 153L161.268 150C161.268 150 195.268 155.971 233.268 150C271.268 144.029 275.268 174 275.268 185.5C275.268 197 251.268 248.5 233.268 231C215.268 213.5 244.268 206.5 238.768 196C233.268 185.5 208.268 206 208.268 206C208.268 206 212.268 310 179.268 328C146.268 346 29.2677 354.5 13.2677 348C-2.73235 341.5 -9.23227 278.84 22.7677 275C54.7676 271.16 34.2677 306 41.7677 310C49.2677 314 94.2677 309.5 115.768 294.5Z" fill="#FF9233"/>
<path d="M94.2676 183.5C109.768 195.5 139.268 150.5 139.268 150.5L144.768 152.5L153.268 204C153.268 204 100.768 233.5 79.2677 219.5C57.7677 205.5 35.7676 174 61.7676 161C87.7676 148 78.7677 171.5 94.2676 183.5Z" fill="#FF9233"/>
<circle cx="138.268" cy="104" r="15" fill="#512C00"/>
<circle cx="188.268" cy="104" r="15" fill="#512C00"/>
<circle cx="137.268" cy="103" r="15" fill="#855000"/>
<circle cx="187.268" cy="103" r="15" fill="#855000"/>
<path d="M129.268 91.5C125.268 94.5 123.208 101.569 124.708 99.0694C126.208 96.5694 132.208 90.0694 136.208 89.5694C140.208 89.0694 133.268 88.5 129.268 91.5Z" fill="#C0A47A"/>
<path d="M179.268 91.5C175.268 94.5 173.208 101.569 174.708 99.0694C176.208 96.5694 182.208 90.0694 186.208 89.5694C190.208 89.0694 183.268 88.5 179.268 91.5Z" fill="#C0A47A"/>
<path d="M136.268 129C136.268 129 147.768 142.5 163.768 142C179.768 141.5 187.768 130 187.768 130" stroke="#EFEFEF" stroke-width="4" stroke-linecap="round"/>
<path d="M136.268 129C136.268 129 147.768 141.5 163.768 141C179.768 140.5 187.768 130 187.768 130" stroke="white" stroke-width="4" stroke-linecap="round"/>
<circle cx="190.268" cy="124" r="1" fill="#DF7518"/>
<circle cx="116.268" cy="122" r="1" fill="#DF7518"/>
<circle cx="197.268" cy="122" r="2" fill="#DF7518"/>
<circle cx="123.268" cy="120" r="2" fill="#DF7518"/>
<circle cx="195.268" cy="135" r="1" fill="#DF7518"/>
<circle cx="121.268" cy="126" r="1" fill="#DF7518"/>
<circle cx="77.7421" cy="190.089" r="1" transform="rotate(-43.3892 77.7421 190.089)" fill="#DF7518"/>
<circle cx="81.4552" cy="183.827" r="2" transform="rotate(-43.3892 81.4552 183.827)" fill="#DF7518"/>
<circle cx="84.1235" cy="189.561" r="1" transform="rotate(-43.3892 84.1235 189.561)" fill="#DF7518"/>
<circle cx="210.334" cy="168.735" r="1" transform="rotate(-55.8692 210.334 168.735)" fill="#DF7518"/>
<circle cx="212.606" cy="161.819" r="2" transform="rotate(-55.8692 212.606 161.819)" fill="#DF7518"/>
<circle cx="216.451" cy="166.841" r="1" transform="rotate(-55.8692 216.451 166.841)" fill="#DF7518"/>
<circle cx="191.14" cy="233.694" r="1" transform="rotate(-55.8692 191.14 233.694)" fill="#DF7518"/>
<circle cx="193.412" cy="226.778" r="2" transform="rotate(-55.8692 193.412 226.778)" fill="#DF7518"/>
<circle cx="197.256" cy="231.8" r="1" transform="rotate(-55.8692 197.256 231.8)" fill="#DF7518"/>
<circle cx="77.1398" cy="321.694" r="1" transform="rotate(-55.8692 77.1398 321.694)" fill="#DF7518"/>
<circle cx="79.4118" cy="314.778" r="2" transform="rotate(-55.8692 79.4118 314.778)" fill="#DF7518"/>
<circle cx="83.2562" cy="319.8" r="1" transform="rotate(-55.8692 83.2562 319.8)" fill="#DF7518"/>
<circle cx="205.289" cy="344.648" r="1" transform="rotate(142.865 205.289 344.648)" fill="#DF7518"/>
<circle cx="200.916" cy="350.468" r="2" transform="rotate(142.865 200.916 350.468)" fill="#DF7518"/>
<circle cx="198.888" cy="344.477" r="1" transform="rotate(142.865 198.888 344.477)" fill="#DF7518"/>
<path d="M66.2676 208L65.3334 205.509C64.4715 203.21 66.5754 200.902 68.9437 201.548L69.2443 201.63C71.413 202.221 73.3766 200.178 72.6997 198.035V198.035C72.0525 195.985 73.8281 193.988 75.9393 194.39L77.1431 194.619C79.3302 195.036 81.2294 193.078 80.7464 190.904V190.904C80.2747 188.782 82.0794 186.847 84.2296 187.169L84.7343 187.245C87.1457 187.607 89.1604 185.419 88.6019 183.046L87.7676 179.5" stroke="#EFEFEF" stroke-width="2" stroke-linecap="round"/>
<path d="M237.954 204.261L239.744 202.937C241.423 201.695 243.793 202.877 243.81 204.964L243.813 205.254C243.828 207.155 245.938 208.278 247.524 207.229V207.229C249.041 206.227 251.071 207.208 251.227 209.019L251.32 210.103C251.481 211.979 253.506 213.07 255.161 212.173V212.173C256.778 211.298 258.763 212.317 258.992 214.141L259.049 214.594C259.307 216.652 261.558 217.791 263.369 216.78L266.037 215.292" stroke="#EFEFEF" stroke-width="2" stroke-linecap="round"/>
<path d="M44.3947 347.205L42.3716 345.938C40.5716 344.81 40.699 341.832 42.5904 340.825L42.7825 340.723C44.5358 339.789 44.7162 337.057 43.1 335.914V335.914C41.5557 334.821 41.6355 332.243 43.2457 331.205L44.0653 330.677C45.7348 329.602 45.9168 326.971 44.4107 325.686V325.686C42.9403 324.431 43.0718 321.878 44.6645 320.756L44.9919 320.525C46.7556 319.284 46.8861 316.45 45.2426 315.083L42.7115 312.978" stroke="#EFEFEF" stroke-width="2" stroke-linecap="round"/>
<path d="M100.395 342.983L98.3301 341.591C96.5465 340.389 96.6973 337.2 98.5891 336.115L98.7409 336.028C100.512 335.012 100.716 332.056 99.0983 330.824V330.824C97.5538 329.648 97.6535 326.86 99.2803 325.732L100.027 325.214C101.715 324.043 101.917 321.197 100.41 319.812V319.812C98.9395 318.461 99.0894 315.699 100.7 314.478L100.992 314.256C102.756 312.919 102.906 309.886 101.279 308.43L98.7115 306.13" stroke="#EFEFEF" stroke-width="2" stroke-linecap="round"/>
<path d="M228.395 358.205L226.372 356.938C224.572 355.81 224.699 352.832 226.59 351.825L226.782 351.723C228.536 350.789 228.716 348.057 227.1 346.914V346.914C225.556 345.821 225.636 343.243 227.246 342.205L228.065 341.677C229.735 340.602 229.917 337.971 228.411 336.686V336.686C226.94 335.431 227.072 332.878 228.664 331.756L228.992 331.525C230.756 330.284 230.886 327.45 229.243 326.083L226.712 323.978" stroke="#EFEFEF" stroke-width="2" stroke-linecap="round"/>
<path d="M192.104 351.357L190.447 349.638C188.973 348.109 189.817 345.25 191.896 344.73L192.107 344.677C194.034 344.195 194.869 341.587 193.577 340.087V340.087C192.343 338.654 193.044 336.171 194.857 335.554L195.78 335.24C197.66 334.6 198.472 332.091 197.322 330.48V330.48C196.198 328.907 196.943 326.461 198.76 325.758L199.133 325.613C201.145 324.834 201.956 322.116 200.692 320.393L198.745 317.739" stroke="#EFEFEF" stroke-width="2" stroke-linecap="round"/>
<path d="M66.2676 207L65.3334 204.509C64.4715 202.21 66.5754 199.902 68.9437 200.548L69.2443 200.63C71.413 201.221 73.3766 199.178 72.6997 197.035V197.035C72.0525 194.985 73.8281 192.988 75.9393 193.39L77.1431 193.619C79.3302 194.036 81.2294 192.078 80.7464 189.904V189.904C80.2747 187.782 82.0794 185.847 84.2296 186.169L84.7343 186.245C87.1457 186.607 89.1604 184.419 88.6019 182.046L87.7676 178.5" stroke="white" stroke-width="2" stroke-linecap="round"/>
<path d="M238.767 204.03L240.556 202.706C242.235 201.464 244.606 202.646 244.623 204.734L244.625 205.023C244.641 206.924 246.75 208.047 248.337 206.999V206.999C249.854 205.996 251.884 206.978 252.04 208.789L252.133 209.873C252.294 211.748 254.319 212.839 255.974 211.943V211.943C257.591 211.067 259.576 212.087 259.804 213.911L259.861 214.364C260.119 216.421 262.37 217.56 264.182 216.549L266.85 215.061" stroke="white" stroke-width="2" stroke-linecap="round"/>
<path d="M43.8463 346.475L41.8231 345.208C40.0231 344.081 40.1505 341.103 42.0419 340.095L42.234 339.993C43.9873 339.059 44.1677 336.327 42.5515 335.184V335.184C41.0072 334.092 41.087 331.513 42.6972 330.475L43.5168 329.947C45.1863 328.872 45.3683 326.241 43.8622 324.956V324.956C42.3918 323.701 42.5233 321.148 44.116 320.026L44.4435 319.796C46.2071 318.554 46.3376 315.72 44.6941 314.353L42.1631 312.249" stroke="white" stroke-width="2" stroke-linecap="round"/>
<path d="M99.8463 342.197L97.7817 340.805C95.998 339.603 96.1488 336.414 98.0406 335.329L98.1925 335.242C99.964 334.226 100.167 331.27 98.5499 330.039V330.039C97.0054 328.862 97.105 326.075 98.7319 324.946L99.4783 324.428C101.166 323.258 101.368 320.411 99.8615 319.026V319.026C98.391 317.675 98.541 314.913 100.151 313.692L100.444 313.47C102.208 312.133 102.357 309.1 100.731 307.644L98.1631 305.344" stroke="white" stroke-width="2" stroke-linecap="round"/>
<path d="M227.846 357.475L225.823 356.208C224.023 355.081 224.151 352.103 226.042 351.095L226.234 350.993C227.987 350.059 228.168 347.327 226.552 346.184V346.184C225.007 345.092 225.087 342.513 226.697 341.475L227.517 340.947C229.186 339.872 229.368 337.241 227.862 335.956V335.956C226.392 334.701 226.523 332.148 228.116 331.026L228.443 330.796C230.207 329.554 230.338 326.72 228.694 325.353L226.163 323.249" stroke="white" stroke-width="2" stroke-linecap="round"/>
<path d="M191.748 350.516L190.092 348.797C188.617 347.268 189.461 344.41 191.54 343.889L191.751 343.836C193.678 343.354 194.514 340.746 193.222 339.247V339.247C191.987 337.814 192.688 335.33 194.501 334.713L195.424 334.399C197.304 333.759 198.117 331.251 196.966 329.639V329.639C195.843 328.066 196.587 325.62 198.404 324.917L198.778 324.772C200.789 323.994 201.601 321.276 200.336 319.552L198.389 316.898" stroke="white" stroke-width="2" stroke-linecap="round"/>
<path d="M163.268 163L160.4 167.589C159.212 169.489 159.75 171.989 161.615 173.231L162.984 174.145C164.94 175.448 164.822 178.359 162.768 179.5V179.5C160.713 180.641 160.596 183.552 162.551 184.855L163.308 185.36C165.155 186.592 165.101 189.324 163.207 190.481L162.843 190.704C160.907 191.887 161.094 194.756 163.167 195.678V195.678C165.064 196.521 165.427 199.057 163.842 200.398L163.299 200.858C161.908 202.035 161.751 204.124 162.951 205.495L167.643 210.857C169.056 212.472 167.909 215 165.763 215V215C163.705 215 162.53 217.35 163.765 218.996L163.832 219.086C164.64 220.163 164.473 221.681 163.451 222.557L160.721 224.897C159.556 225.896 159.785 227.759 161.157 228.445V228.445C162.289 229.011 162.688 230.428 162.017 231.501L159.906 234.879C158.998 236.332 159.426 238.245 160.867 239.171L162.909 240.484C163.976 241.17 163.925 242.746 162.817 243.362V243.362C161.811 243.92 161.653 245.301 162.506 246.073L166.024 249.255C168.383 251.39 167.592 255.273 164.585 256.313L163.057 256.842C160.843 257.608 160.195 260.427 161.851 262.084V262.084C163.85 264.083 162.435 267.5 159.608 267.5H158.76C156.563 267.5 155.206 269.897 156.336 271.781V271.781C157.304 273.393 156.457 275.483 154.641 275.967L154.304 276.057C152.569 276.52 151.802 278.551 152.798 280.045V280.045C153.385 280.926 153.385 282.074 152.798 282.955L152.137 283.946C151.286 285.222 151.159 286.849 151.802 288.241L153.768 292.5" stroke="#EFEFEF" stroke-width="2" stroke-linecap="round"/>
<path d="M173.268 163L170.4 167.589C169.212 169.489 169.75 171.989 171.615 173.231L172.984 174.145C174.94 175.448 174.822 178.359 172.768 179.5V179.5C170.713 180.641 170.596 183.552 172.551 184.855L173.308 185.36C175.155 186.592 175.101 189.324 173.207 190.481L172.843 190.704C170.907 191.887 171.094 194.756 173.167 195.678V195.678C175.064 196.521 175.427 199.057 173.842 200.398L173.299 200.858C171.908 202.035 171.751 204.124 172.951 205.495L177.643 210.857C179.056 212.472 177.909 215 175.763 215V215C173.705 215 172.53 217.35 173.765 218.996L173.832 219.086C174.64 220.163 174.473 221.681 173.451 222.557L170.721 224.897C169.556 225.896 169.785 227.759 171.157 228.445V228.445C172.289 229.011 172.688 230.428 172.017 231.501L169.906 234.879C168.998 236.332 169.426 238.245 170.867 239.171L172.909 240.484C173.976 241.17 173.925 242.746 172.817 243.362V243.362C171.811 243.92 171.653 245.301 172.506 246.073L176.024 249.255C178.383 251.39 177.592 255.273 174.585 256.313L173.057 256.842C170.843 257.608 170.195 260.427 171.851 262.084V262.084C173.85 264.083 172.435 267.5 169.608 267.5H168.76C166.563 267.5 165.206 269.897 166.336 271.781V271.781C167.304 273.393 166.457 275.483 164.641 275.967L164.304 276.057C162.569 276.52 161.802 278.551 162.798 280.045V280.045C163.385 280.926 163.385 282.074 162.798 282.955L162.137 283.946C161.286 285.222 161.159 286.849 161.802 288.241L163.768 292.5" stroke="#EFEFEF" stroke-width="2" stroke-linecap="round"/>
<path d="M163.268 162L160.4 166.589C159.212 168.489 159.75 170.989 161.615 172.231L162.984 173.145C164.94 174.448 164.822 177.359 162.768 178.5V178.5C160.713 179.641 160.596 182.552 162.551 183.855L163.308 184.36C165.155 185.592 165.101 188.324 163.207 189.481L162.843 189.704C160.907 190.887 161.094 193.756 163.167 194.678V194.678C165.064 195.521 165.427 198.057 163.842 199.398L163.299 199.858C161.908 201.035 161.751 203.124 162.951 204.495L167.643 209.857C169.056 211.472 167.909 214 165.763 214V214C163.705 214 162.53 216.35 163.765 217.996L163.832 218.086C164.64 219.163 164.473 220.681 163.451 221.557L160.721 223.897C159.556 224.896 159.785 226.759 161.157 227.445V227.445C162.289 228.011 162.688 229.428 162.017 230.501L159.906 233.879C158.998 235.332 159.426 237.245 160.867 238.171L162.909 239.484C163.976 240.17 163.925 241.746 162.817 242.362V242.362C161.811 242.92 161.653 244.301 162.506 245.073L166.024 248.255C168.383 250.39 167.592 254.273 164.585 255.313L163.057 255.842C160.843 256.608 160.195 259.427 161.851 261.084V261.084C163.85 263.083 162.435 266.5 159.608 266.5H158.76C156.563 266.5 155.206 268.897 156.336 270.781V270.781C157.304 272.393 156.457 274.483 154.641 274.967L154.304 275.057C152.569 275.52 151.802 277.551 152.798 279.045V279.045C153.385 279.926 153.385 281.074 152.798 281.955L152.137 282.946C151.286 284.222 151.159 285.849 151.802 287.241L153.768 291.5" stroke="white" stroke-width="2" stroke-linecap="round"/>
<path d="M173.268 162L170.4 166.589C169.212 168.489 169.75 170.989 171.615 172.231L172.984 173.145C174.94 174.448 174.822 177.359 172.768 178.5V178.5C170.713 179.641 170.596 182.552 172.551 183.855L173.308 184.36C175.155 185.592 175.101 188.324 173.207 189.481L172.843 189.704C170.907 190.887 171.094 193.756 173.167 194.678V194.678C175.064 195.521 175.427 198.057 173.842 199.398L173.299 199.858C171.908 201.035 171.751 203.124 172.951 204.495L177.643 209.857C179.056 211.472 177.909 214 175.763 214V214C173.705 214 172.53 216.35 173.765 217.996L173.832 218.086C174.64 219.163 174.473 220.681 173.451 221.557L170.721 223.897C169.556 224.896 169.785 226.759 171.157 227.445V227.445C172.289 228.011 172.688 229.428 172.017 230.501L169.906 233.879C168.998 235.332 169.426 237.245 170.867 238.171L172.909 239.484C173.976 240.17 173.925 241.746 172.817 242.362V242.362C171.811 242.92 171.653 244.301 172.506 245.073L176.024 248.255C178.383 250.39 177.592 254.273 174.585 255.313L173.057 255.842C170.843 256.608 170.195 259.427 171.851 261.084V261.084C173.85 263.083 172.435 266.5 169.608 266.5H168.76C166.563 266.5 165.206 268.897 166.336 270.781V270.781C167.304 272.393 166.457 274.483 164.641 274.967L164.304 275.057C162.569 275.52 161.802 277.551 162.798 279.045V279.045C163.385 279.926 163.385 281.074 162.798 281.955L162.137 282.946C161.286 284.222 161.159 285.849 161.802 287.241L163.768 291.5" stroke="white" stroke-width="2" stroke-linecap="round"/>
<circle cx="167.268" cy="184" r="15" fill="#A90404"/>
<circle cx="165.268" cy="222" r="15" fill="#E1B000"/>
<circle cx="161.268" cy="262" r="15" fill="#127701"/>
<circle cx="166.268" cy="183" r="15" fill="#C30000"/>
<circle cx="164.268" cy="221" r="15" fill="#F9CC2D"/>
<circle cx="160.268" cy="261" r="15" fill="#18AE00"/>
<path d="M158.268 171.5C154.268 174.5 152.208 181.569 153.708 179.069C155.208 176.569 161.208 170.069 165.208 169.569C169.208 169.069 162.268 168.5 158.268 171.5Z" fill="#E99C9C"/>
<path d="M156.268 209.5C152.268 212.5 150.208 219.569 151.708 217.069C153.208 214.569 159.208 208.069 163.208 207.569C167.208 207.069 160.268 206.5 156.268 209.5Z" fill="#FFE999"/>
<path d="M152.268 249.5C148.268 252.5 146.208 259.569 147.708 257.069C149.208 254.569 155.208 248.069 159.208 247.569C163.208 247.069 156.268 246.5 152.268 249.5Z" fill="#98D88E"/>
<path d="M160 63.5L151.5 73.5" stroke="#F0F0F0" stroke-width="2" stroke-linecap="round"/>
<path d="M161 61L157 76" stroke="#F0F0F0" stroke-width="2" stroke-linecap="round"/>
<path d="M162 60L160 75" stroke="#F0F0F0" stroke-width="2" stroke-linecap="round"/>
<path d="M160 63L168 79" stroke="#F0F0F0" stroke-width="2" stroke-linecap="round"/>
<path d="M160 63L173 82" stroke="#F0F0F0" stroke-width="2" stroke-linecap="round"/>
<path d="M165 64L178 83" stroke="#F0F0F0" stroke-width="2" stroke-linecap="round"/>
<path d="M160.5 63.5L152 73.5" stroke="white" stroke-width="2" stroke-linecap="round"/>
<path d="M161.5 61L157.5 76" stroke="white" stroke-width="2" stroke-linecap="round"/>
<path d="M162.5 60L160.5 75" stroke="white" stroke-width="2" stroke-linecap="round"/>
<path d="M160.5 63L168.5 79" stroke="white" stroke-width="2" stroke-linecap="round"/>
<path d="M160.5 63L173.5 82" stroke="white" stroke-width="2" stroke-linecap="round"/>
<path d="M165.5 64L178.5 83" stroke="white" stroke-width="2" stroke-linecap="round"/>
<path d="M166.364 11.8913C116 23.513 122.65 62.6184 122.65 62.6184L205 67C205 67 198.696 61.6184 205 46.6267C211.304 31.635 234.5 10.5 234.5 10.5C234.5 10.5 216.728 0.269538 166.364 11.8913Z" fill="#C30000"/>
<circle cx="234" cy="10" r="10" fill="white"/>
<line x1="117" y1="61" x2="208" y2="61" stroke="white" stroke-width="16" stroke-linecap="round"/>
<path fill-rule="evenodd" clip-rule="evenodd" d="M145.956 88.5613L126.956 115.561L127.579 116H132.761L150.045 91.4387L145.956 88.5613Z" fill="white" fill-opacity="0.2"/>
<path fill-rule="evenodd" clip-rule="evenodd" d="M195.884 88.668L178.884 115.668L179.412 116H184.584L200.116 91.332L195.884 88.668Z" fill="white" fill-opacity="0.2"/>
<path d="M153 90L134 117" stroke="white" stroke-opacity="0.2"/>
<path d="M203 90L187 116" stroke="white" stroke-opacity="0.2"/>
<path d="M145 90.5V87L156 84L158 89.5L152.5 92L149.5 90L145 90.5Z" fill="#FF9233"/>
<path d="M195 88L204 88.6V91H195V88Z" fill="#FF9233"/>
<path d="M148.79 90.2773L120.472 91.5419C117.2 91.6881 114.949 94.8898 115.92 98.0188L120.408 112.482C121.058 114.574 122.993 116 125.184 116H146.291C148.723 116 150.803 114.249 151.218 111.853L153.94 96.1251C154.484 92.9785 151.98 90.1349 148.79 90.2773Z" fill="#D0D0D2" fill-opacity="0.3"/>
<path d="M174.21 90.2773L202.528 91.5419C205.8 91.6881 208.051 94.8898 207.08 98.0188L202.592 112.482C201.942 114.574 200.007 116 197.816 116H176.709C174.277 116 172.197 114.249 171.782 111.853L169.06 96.1251C168.516 92.9785 171.02 90.1349 174.21 90.2773Z" fill="#D0D0D2" fill-opacity="0.3"/>
<path d="M148.79 90.2773L120.472 91.5419C117.2 91.6881 114.949 94.8898 115.92 98.0188L120.408 112.482C121.058 114.574 122.993 116 125.184 116H146.291C148.723 116 150.803 114.249 151.218 111.853L153.94 96.1251C154.484 92.9785 151.98 90.1349 148.79 90.2773Z" stroke="black" stroke-width="2" stroke-linecap="round"/>
<path d="M174.21 90.2773L202.528 91.5419C205.8 91.6881 208.051 94.8898 207.08 98.0188L202.592 112.482C201.942 114.574 200.007 116 197.816 116H176.709C174.277 116 172.197 114.249 171.782 111.853L169.06 96.1251C168.516 92.9785 171.02 90.1349 174.21 90.2773Z" stroke="black" stroke-width="2" stroke-linecap="round"/>
<path d="M153.5 98.5C153.5 98.5 159.5 94 169 98.5" stroke="black" stroke-width="2" stroke-linecap="round"/>
<path d="M116.125 95.58C116.125 95.58 115.625 94.58 116.625 93.08C117.625 91.58 118.625 92.08 118.625 92.08C118.625 92.08 118.181 92.0003 117.125 93.08C116.069 94.1597 116.125 95.58 116.125 95.58Z" fill="#D9D9D9"/>
<path d="M202.4 112.698C202.4 112.698 202.601 113.798 201.222 114.959C199.843 116.12 198 116 198 116C198 116 199.426 115.561 200.742 114.819C202.057 114.077 202.4 112.698 202.4 112.698Z" fill="#D9D9D9"/>
</svg>
