<svg width="190" height="183" viewBox="0 0 190 183" fill="none" xmlns="http://www.w3.org/2000/svg">
<path d="M141.264 36.5093C141.264 36.5093 146.781 27.8228 173.186 30.1919C199.59 32.5609 173.186 146.67 141.264 144.696" stroke="#B90E0C" stroke-width="12" stroke-miterlimit="10" stroke-linecap="round"/>
<path d="M0.96463 17.9558C-2.18816 25.8527 3.32923 165.232 4.11743 168.786C4.90562 172.339 18.3049 183 73.8728 183C129.441 183 136.14 172.734 137.717 168.786C139.293 164.837 144.81 22.2991 142.84 16.7713C140.869 11.6383 119.982 0.187927 72.2964 0.187927C24.6105 0.187927 4.11741 10.059 0.96463 17.9558Z" fill="#B90E0C"/>
<path d="M0.96448 17.9517C0.96448 17.9517 -2.5824 34.5351 69.5376 34.5351C141.658 34.5351 143.628 19.1362 143.628 19.1362C143.628 19.1362 141.263 -2.18531 72.6904 0.183749C-0.217798 2.94765 0.96448 17.9517 0.96448 17.9517Z" fill="#CC6364"/>
<path d="M17.1225 17.5569C17.1225 17.5569 14.3638 29.4021 69.5376 29.4021C124.711 29.4021 126.288 18.3465 126.288 18.3465C126.288 18.3465 124.317 3.34251 71.9021 4.92188C16.3343 6.8961 17.1225 17.5569 17.1225 17.5569Z" fill="#A38A61"/>
<path d="M32.0983 32.5609L33.6747 180.627C33.6747 180.627 45.4976 182.996 56.9265 182.996V32.9558H32.0983V32.5609Z" fill="#CC6364"/>
<path fill-rule="evenodd" clip-rule="evenodd" d="M17 114.549L23.9317 97.1033H30.5919L23.6691 114.549H17Z" fill="white"/>
<path fill-rule="evenodd" clip-rule="evenodd" d="M102.534 114.549L109.377 97.1033H113.008L106.166 114.549H102.534Z" fill="white"/>
<path fill-rule="evenodd" clip-rule="evenodd" d="M115.992 114.549L122.834 97.1033H124.762L117.92 114.549H115.992Z" fill="white"/>
<path fill-rule="evenodd" clip-rule="evenodd" d="M96.2376 97.1033H90.2089C90.2089 97.1033 89.7934 97.1033 89.6464 97.4765L86.3101 107.863L82.9765 97.4765C82.8296 97.1033 82.4116 97.1033 82.4116 97.1033H70.8199C70.569 97.1033 70.3586 97.3164 70.3586 97.57V101.097C70.3586 98.2992 67.431 97.1033 65.7166 97.1033C61.8776 97.1033 59.3077 99.6747 58.5075 103.584C58.4641 100.991 58.2522 100.061 57.5652 99.1096C57.2496 98.6434 56.7936 98.2514 56.2969 97.9272C55.2743 97.3181 54.3561 97.1033 52.3828 97.1033H50.0658C50.0658 97.1033 49.6471 97.1033 49.4993 97.4765L47.3911 102.789V97.57C47.3911 97.3164 47.1824 97.1033 46.9318 97.1033H41.5704C41.5704 97.1033 41.1564 97.1033 41.0059 97.4765L38.8142 103.001C38.8142 103.001 38.5954 103.553 39.0956 103.553H41.1564V114.081C41.1564 114.342 41.3588 114.549 41.617 114.549H46.9318C47.1824 114.549 47.3911 114.342 47.3911 114.081V103.553H49.4628C50.6516 103.553 50.9033 103.586 51.3659 103.806C51.6445 103.913 51.8954 104.129 52.0323 104.379C52.3126 104.915 52.3828 105.559 52.3828 107.459V114.081C52.3828 114.342 52.5892 114.549 52.8441 114.549H57.9382C57.9382 114.549 58.5139 114.549 58.7416 113.971L59.8706 111.133C61.3717 113.271 63.8425 114.549 66.913 114.549H67.5839C67.5839 114.549 68.1633 114.549 68.3925 113.971L70.3586 109.019V114.081C70.3586 114.342 70.569 114.549 70.8199 114.549H76.02C76.02 114.549 76.5937 114.549 76.8241 113.971C76.8241 113.971 78.9039 108.72 78.9119 108.68H78.9151C78.995 108.243 78.4522 108.243 78.4522 108.243H76.5961V99.2333L82.4357 113.971C82.6638 114.549 83.2387 114.549 83.2387 114.549H89.3819C89.3819 114.549 89.96 114.549 90.188 113.971L96.662 97.6684C96.8861 97.1033 96.2376 97.1033 96.2376 97.1033V97.1033ZM70.3586 108.243H66.8656C65.4753 108.243 64.3443 107.099 64.3443 105.683C64.3443 104.27 65.4753 103.118 66.8656 103.118H67.8425C69.2292 103.118 70.3586 104.27 70.3586 105.683V108.243ZM67.31 133.976C48.5842 133.976 33.4004 118.536 33.4004 99.4906C33.4004 80.4429 48.5842 65 67.31 65C86.0426 65 101.228 80.4429 101.228 99.4906C101.228 118.536 86.0426 133.976 67.31 133.976Z" fill="white"/>
</svg>
