<svg width="279" height="389" viewBox="0 0 279 389" fill="none" xmlns="http://www.w3.org/2000/svg">
<path d="M230.5 305C215 303.5 183.5 289 183.5 289C183.5 289 174.5 238 140.5 289C106.5 340 237.5 348 237.5 348C237.5 348 239 387 264 385C289 383 276 324 269 312.5C262 301 246 306.5 230.5 305Z" fill="#B75501"/>
<path d="M95.3051 177.5C110.805 189.5 147.305 147 147.305 147L154.305 198C154.305 198 101.805 227.5 80.3051 213.5C58.8051 199.5 36.805 168 62.805 155C88.805 142 79.8051 165.5 95.3051 177.5Z" fill="#B75501"/>
<path d="M226.5 308C211 306.5 179.5 292 179.5 292C179.5 292 170.5 241 136.5 292C102.5 343 233.5 351 233.5 351C233.5 351 235 390 260 388C285 386 272 327 265 315.5C258 304 242 309.5 226.5 308Z" fill="#FF9233"/>
<path d="M217 306C213 305.5 179.5 292 179.5 292C179.5 292 167 256 136.5 292C106 328 153 333.5 166 338.5C179 343.5 221 306.5 217 306Z" fill="#E68736"/>
<path d="M118.5 288.5C140 273.5 140 155.5 140 155.5L164 144C164 144 198 149.971 236 144C274 138.029 278 168 278 179.5C278 191 254 242.5 236 225C218 207.5 247 200.5 241.5 190C236 179.5 211 200 211 200C211 200 215 304 182 322C149 340 32.0001 348.5 16 342C1.33514e-05 335.5 -6.49991 272.84 25.5 269C57.5 265.16 28 300 35.5 304C43 308 97 303.5 118.5 288.5Z" fill="#B75501"/>
<circle cx="167" cy="99" r="52" fill="#B75601"/>
<circle cx="162" cy="96" r="52" fill="#FF9233"/>
<path d="M116.5 283.5C138 268.5 144 142 144 142L162 139C162 139 196 144.971 234 139C272 133.029 276 163 276 174.5C276 186 252 237.5 234 220C216 202.5 245 195.5 239.5 185C234 174.5 209 195 209 195C209 195 213 299 180 317C147 335 30.0001 343.5 14 337C-1.99999 330.5 -8.49991 267.84 23.5 264C55.5 260.16 35.0001 295 42.5001 299C50.0001 303 95 298.5 116.5 283.5Z" fill="#FF9233"/>
<path d="M95 172.5C110.5 184.5 140 139.5 140 139.5L145.5 141.5L154 193C154 193 101.5 222.5 80 208.5C58.5 194.5 36.5 163 62.5 150C88.5 137 79.5 160.5 95 172.5Z" fill="#FF9233"/>
<path d="M166.364 11.8913C116 23.513 122.65 62.6184 122.65 62.6184L205 67C205 67 198.696 61.6184 205 46.6267C211.304 31.635 234.5 10.5 234.5 10.5C234.5 10.5 216.728 0.269538 166.364 11.8913Z" fill="#C30000"/>
<circle cx="234" cy="10" r="10" fill="white"/>
<line x1="117" y1="61" x2="208" y2="61" stroke="white" stroke-width="16" stroke-linecap="round"/>
<circle cx="139" cy="93" r="15" fill="#512C00"/>
<circle cx="189" cy="93" r="15" fill="#512C00"/>
<circle cx="138" cy="92" r="15" fill="#855000"/>
<circle cx="188" cy="92" r="15" fill="#855000"/>
<path d="M130 80.5C126 83.5 123.94 90.5693 125.44 88.0694C126.94 85.5694 132.94 79.0694 136.94 78.5694C140.94 78.0694 134 77.5 130 80.5Z" fill="#C0A47A"/>
<path d="M180 80.5C176 83.5 173.94 90.5693 175.44 88.0694C176.94 85.5694 182.94 79.0694 186.94 78.5694C190.94 78.0694 184 77.5 180 80.5Z" fill="#C0A47A"/>
<path d="M137 118C137 118 148.5 131.5 164.5 131C180.5 130.5 188.5 119 188.5 119" stroke="#C8C8C8" stroke-width="4" stroke-linecap="round"/>
<path d="M137 118C137 118 148.5 130.5 164.5 130C180.5 129.5 188.5 119 188.5 119" stroke="white" stroke-width="4" stroke-linecap="round"/>
<circle cx="191" cy="113" r="1" fill="#DF7518"/>
<circle cx="117" cy="111" r="1" fill="#DF7518"/>
<circle cx="198" cy="111" r="2" fill="#DF7518"/>
<circle cx="124" cy="109" r="2" fill="#DF7518"/>
<circle cx="196" cy="124" r="1" fill="#DF7518"/>
<circle cx="122" cy="115" r="1" fill="#DF7518"/>
<circle cx="78.4745" cy="179.089" r="1" transform="rotate(-43.3892 78.4745 179.089)" fill="#DF7518"/>
<circle cx="82.1875" cy="172.827" r="2" transform="rotate(-43.3892 82.1875 172.827)" fill="#DF7518"/>
<circle cx="84.8558" cy="178.561" r="1" transform="rotate(-43.3892 84.8558 178.561)" fill="#DF7518"/>
<circle cx="211.067" cy="157.735" r="1" transform="rotate(-55.8692 211.067 157.735)" fill="#DF7518"/>
<circle cx="213.339" cy="150.819" r="2" transform="rotate(-55.8692 213.339 150.819)" fill="#DF7518"/>
<circle cx="217.183" cy="155.841" r="1" transform="rotate(-55.8692 217.183 155.841)" fill="#DF7518"/>
<circle cx="191.872" cy="222.694" r="1" transform="rotate(-55.8692 191.872 222.694)" fill="#DF7518"/>
<circle cx="194.144" cy="215.778" r="2" transform="rotate(-55.8692 194.144 215.778)" fill="#DF7518"/>
<circle cx="197.989" cy="220.8" r="1" transform="rotate(-55.8692 197.989 220.8)" fill="#DF7518"/>
<circle cx="77.8721" cy="310.694" r="1" transform="rotate(-55.8692 77.8721 310.694)" fill="#DF7518"/>
<circle cx="80.1442" cy="303.778" r="2" transform="rotate(-55.8692 80.1442 303.778)" fill="#DF7518"/>
<circle cx="83.9886" cy="308.8" r="1" transform="rotate(-55.8692 83.9886 308.8)" fill="#DF7518"/>
<circle cx="206.021" cy="333.648" r="1" transform="rotate(142.865 206.021 333.648)" fill="#DF7518"/>
<circle cx="201.648" cy="339.468" r="2" transform="rotate(142.865 201.648 339.468)" fill="#DF7518"/>
<circle cx="199.62" cy="333.477" r="1" transform="rotate(142.865 199.62 333.477)" fill="#DF7518"/>
<path d="M67 197L66.0658 194.509C65.2039 192.21 67.3078 189.902 69.676 190.548L69.9767 190.63C72.1454 191.221 74.109 189.178 73.4321 187.035V187.035C72.7849 184.985 74.5604 182.988 76.6716 183.39L77.8755 183.619C80.0625 184.036 81.9617 182.078 81.4788 179.904V179.904C81.0071 177.782 82.8118 175.847 84.962 176.169L85.4666 176.245C87.8781 176.607 89.8928 174.419 89.3343 172.046L88.5 168.5" stroke="#EFEFEF" stroke-width="2" stroke-linecap="round"/>
<path d="M238.687 193.261L240.476 191.937C242.155 190.695 244.525 191.877 244.543 193.964L244.545 194.254C244.561 196.155 246.67 197.278 248.257 196.229V196.229C249.774 195.227 251.804 196.208 251.959 198.019L252.053 199.103C252.214 200.979 254.238 202.07 255.894 201.173V201.173C257.511 200.298 259.495 201.317 259.724 203.141L259.781 203.594C260.039 205.652 262.29 206.791 264.102 205.78L266.77 204.292" stroke="#EFEFEF" stroke-width="2" stroke-linecap="round"/>
<path d="M45.1271 336.205L43.104 334.938C41.3039 333.81 41.4314 330.832 43.3228 329.825L43.5148 329.723C45.2681 328.789 45.4485 326.057 43.8323 324.914V324.914C42.288 323.821 42.3679 321.243 43.9781 320.205L44.7976 319.677C46.4671 318.602 46.6491 315.971 45.143 314.686V314.686C43.6726 313.431 43.8041 310.878 45.3969 309.756L45.7243 309.525C47.488 308.284 47.6184 305.45 45.9749 304.083L43.4439 301.978" stroke="#EFEFEF" stroke-width="2" stroke-linecap="round"/>
<path d="M101.127 331.983L99.0625 330.591C97.2788 329.389 97.4296 326.2 99.3214 325.115L99.4733 325.028C101.245 324.012 101.448 321.056 99.8307 319.824V319.824C98.2862 318.648 98.3858 315.86 100.013 314.732L100.759 314.214C102.447 313.043 102.649 310.197 101.142 308.812V308.812C99.6718 307.461 99.8218 304.699 101.432 303.478L101.725 303.256C103.489 301.919 103.638 298.886 102.012 297.43L99.4439 295.13" stroke="#EFEFEF" stroke-width="2" stroke-linecap="round"/>
<path d="M229.127 347.205L227.104 345.938C225.304 344.81 225.431 341.832 227.323 340.825L227.515 340.723C229.268 339.789 229.449 337.057 227.832 335.914V335.914C226.288 334.821 226.368 332.243 227.978 331.205L228.798 330.677C230.467 329.602 230.649 326.971 229.143 325.686V325.686C227.673 324.431 227.804 321.878 229.397 320.756L229.724 320.525C231.488 319.284 231.618 316.45 229.975 315.083L227.444 312.978" stroke="#EFEFEF" stroke-width="2" stroke-linecap="round"/>
<path d="M192.837 340.357L191.18 338.638C189.706 337.109 190.549 334.25 192.628 333.73L192.839 333.677C194.766 333.195 195.602 330.587 194.31 329.087V329.087C193.075 327.654 193.776 325.171 195.589 324.554L196.512 324.24C198.392 323.6 199.205 321.091 198.054 319.48V319.48C196.931 317.907 197.676 315.461 199.492 314.758L199.866 314.613C201.877 313.834 202.689 311.116 201.424 309.393L199.477 306.739" stroke="#EFEFEF" stroke-width="2" stroke-linecap="round"/>
<path d="M67 196L66.0658 193.509C65.2039 191.21 67.3078 188.902 69.676 189.548L69.9767 189.63C72.1454 190.221 74.109 188.178 73.4321 186.035V186.035C72.7849 183.985 74.5604 181.988 76.6716 182.39L77.8755 182.619C80.0625 183.036 81.9617 181.078 81.4788 178.904V178.904C81.0071 176.782 82.8118 174.847 84.962 175.169L85.4666 175.245C87.8781 175.607 89.8928 173.419 89.3343 171.046L88.5 167.5" stroke="white" stroke-width="2" stroke-linecap="round"/>
<path d="M239.499 193.03L241.289 191.706C242.968 190.464 245.338 191.646 245.355 193.734L245.358 194.023C245.373 195.924 247.483 197.047 249.069 195.999V195.999C250.586 194.996 252.616 195.978 252.772 197.789L252.865 198.873C253.026 200.748 255.051 201.839 256.706 200.943V200.943C258.323 200.067 260.308 201.087 260.537 202.911L260.594 203.364C260.852 205.421 263.103 206.56 264.914 205.549L267.582 204.061" stroke="white" stroke-width="2" stroke-linecap="round"/>
<path d="M44.5786 335.475L42.5555 334.208C40.7555 333.081 40.8829 330.103 42.7743 329.095L42.9664 328.993C44.7197 328.059 44.9001 325.327 43.2839 324.184V324.184C41.7396 323.092 41.8194 320.513 43.4296 319.475L44.2492 318.947C45.9187 317.872 46.1007 315.241 44.5946 313.956V313.956C43.1242 312.701 43.2557 310.148 44.8484 309.026L45.1758 308.796C46.9395 307.554 47.07 304.72 45.4264 303.353L42.8954 301.249" stroke="white" stroke-width="2" stroke-linecap="round"/>
<path d="M100.579 331.197L98.514 329.805C96.7304 328.603 96.8812 325.414 98.773 324.329L98.9248 324.242C100.696 323.226 100.899 320.27 99.2822 319.039V319.039C97.7377 317.862 97.8374 315.075 99.4642 313.946L100.211 313.428C101.899 312.258 102.1 309.411 100.594 308.026V308.026C99.1234 306.675 99.2733 303.913 100.883 302.692L101.176 302.47C102.94 301.133 103.09 298.1 101.463 296.644L98.8954 294.344" stroke="white" stroke-width="2" stroke-linecap="round"/>
<path d="M228.579 346.475L226.556 345.208C224.755 344.081 224.883 341.103 226.774 340.095L226.966 339.993C228.72 339.059 228.9 336.327 227.284 335.184V335.184C225.74 334.092 225.819 331.513 227.43 330.475L228.249 329.947C229.919 328.872 230.101 326.241 228.595 324.956V324.956C227.124 323.701 227.256 321.148 228.848 320.026L229.176 319.796C230.939 318.554 231.07 315.72 229.426 314.353L226.895 312.249" stroke="white" stroke-width="2" stroke-linecap="round"/>
<path d="M192.481 339.516L190.824 337.797C189.35 336.268 190.193 333.41 192.272 332.889L192.483 332.836C194.41 332.354 195.246 329.746 193.954 328.247V328.247C192.72 326.814 193.42 324.33 195.234 323.713L196.157 323.399C198.037 322.759 198.849 320.251 197.698 318.639V318.639C196.575 317.066 197.32 314.62 199.136 313.917L199.51 313.772C201.521 312.994 202.333 310.276 201.069 308.552L199.122 305.898" stroke="white" stroke-width="2" stroke-linecap="round"/>
<path d="M164 152L161.132 156.589C159.945 158.489 160.483 160.989 162.347 162.231L163.717 163.145C165.672 164.448 165.554 167.359 163.5 168.5V168.5C161.446 169.641 161.328 172.552 163.283 173.855L164.04 174.36C165.888 175.592 165.834 178.324 163.939 179.481L163.575 179.704C161.64 180.887 161.827 183.756 163.9 184.678V184.678C165.797 185.521 166.159 188.057 164.575 189.398L164.031 189.858C162.64 191.035 162.483 193.124 163.683 194.495L168.375 199.857C169.788 201.472 168.641 204 166.496 204V204C164.437 204 163.262 206.35 164.497 207.996L164.564 208.086C165.372 209.163 165.205 210.681 164.183 211.557L161.453 213.897C160.288 214.896 160.518 216.759 161.89 217.445V217.445C163.021 218.011 163.42 219.428 162.75 220.501L160.638 223.879C159.73 225.332 160.159 227.245 161.6 228.171L163.641 229.484C164.708 230.17 164.658 231.746 163.549 232.362V232.362C162.544 232.92 162.385 234.301 163.238 235.073L166.756 238.255C169.115 240.39 168.324 244.273 165.317 245.313L163.789 245.842C161.576 246.608 160.927 249.427 162.584 251.084V251.084C164.583 253.083 163.167 256.5 160.34 256.5H159.493C157.295 256.5 155.938 258.897 157.069 260.781V260.781C158.036 262.393 157.19 264.483 155.373 264.967L155.037 265.057C153.301 265.52 152.534 267.551 153.53 269.045V269.045C154.117 269.926 154.117 271.074 153.53 271.955L152.869 272.946C152.018 274.222 151.892 275.849 152.534 277.241L154.5 281.5" stroke="#EFEFEF" stroke-width="2" stroke-linecap="round"/>
<path d="M174 152L171.132 156.589C169.945 158.489 170.483 160.989 172.347 162.231L173.717 163.145C175.672 164.448 175.554 167.359 173.5 168.5V168.5C171.446 169.641 171.328 172.552 173.283 173.855L174.04 174.36C175.888 175.592 175.834 178.324 173.939 179.481L173.575 179.704C171.64 180.887 171.827 183.756 173.9 184.678V184.678C175.797 185.521 176.159 188.057 174.575 189.398L174.031 189.858C172.64 191.035 172.483 193.124 173.683 194.495L178.375 199.857C179.788 201.472 178.641 204 176.496 204V204C174.437 204 173.262 206.35 174.497 207.996L174.564 208.086C175.372 209.163 175.205 210.681 174.183 211.557L171.453 213.897C170.288 214.896 170.518 216.759 171.89 217.445V217.445C173.021 218.011 173.42 219.428 172.75 220.501L170.638 223.879C169.73 225.332 170.159 227.245 171.6 228.171L173.641 229.484C174.708 230.17 174.658 231.746 173.549 232.362V232.362C172.544 232.92 172.385 234.301 173.238 235.073L176.756 238.255C179.115 240.39 178.324 244.273 175.317 245.313L173.789 245.842C171.576 246.608 170.927 249.427 172.584 251.084V251.084C174.583 253.083 173.167 256.5 170.34 256.5H169.493C167.295 256.5 165.938 258.897 167.069 260.781V260.781C168.036 262.393 167.19 264.483 165.373 264.967L165.037 265.057C163.301 265.52 162.534 267.551 163.53 269.045V269.045C164.117 269.926 164.117 271.074 163.53 271.955L162.869 272.946C162.018 274.222 161.892 275.849 162.534 277.241L164.5 281.5" stroke="#EFEFEF" stroke-width="2" stroke-linecap="round"/>
<path d="M164 151L161.132 155.589C159.945 157.489 160.483 159.989 162.347 161.231L163.717 162.145C165.672 163.448 165.554 166.359 163.5 167.5V167.5C161.446 168.641 161.328 171.552 163.283 172.855L164.04 173.36C165.888 174.592 165.834 177.324 163.939 178.481L163.575 178.704C161.64 179.887 161.827 182.756 163.9 183.678V183.678C165.797 184.521 166.159 187.057 164.575 188.398L164.031 188.858C162.64 190.035 162.483 192.124 163.683 193.495L168.375 198.857C169.788 200.472 168.641 203 166.496 203V203C164.437 203 163.262 205.35 164.497 206.996L164.564 207.086C165.372 208.163 165.205 209.681 164.183 210.557L161.453 212.897C160.288 213.896 160.518 215.759 161.89 216.445V216.445C163.021 217.011 163.42 218.428 162.75 219.501L160.638 222.879C159.73 224.332 160.159 226.245 161.6 227.171L163.641 228.484C164.708 229.17 164.658 230.746 163.549 231.362V231.362C162.544 231.92 162.385 233.301 163.238 234.073L166.756 237.255C169.115 239.39 168.324 243.273 165.317 244.313L163.789 244.842C161.576 245.608 160.927 248.427 162.584 250.084V250.084C164.583 252.083 163.167 255.5 160.34 255.5H159.493C157.295 255.5 155.938 257.897 157.069 259.781V259.781C158.036 261.393 157.19 263.483 155.373 263.967L155.037 264.057C153.301 264.52 152.534 266.551 153.53 268.045V268.045C154.117 268.926 154.117 270.074 153.53 270.955L152.869 271.946C152.018 273.222 151.892 274.849 152.534 276.241L154.5 280.5" stroke="white" stroke-width="2" stroke-linecap="round"/>
<path d="M174 151L171.132 155.589C169.945 157.489 170.483 159.989 172.347 161.231L173.717 162.145C175.672 163.448 175.554 166.359 173.5 167.5V167.5C171.446 168.641 171.328 171.552 173.283 172.855L174.04 173.36C175.888 174.592 175.834 177.324 173.939 178.481L173.575 178.704C171.64 179.887 171.827 182.756 173.9 183.678V183.678C175.797 184.521 176.159 187.057 174.575 188.398L174.031 188.858C172.64 190.035 172.483 192.124 173.683 193.495L178.375 198.857C179.788 200.472 178.641 203 176.496 203V203C174.437 203 173.262 205.35 174.497 206.996L174.564 207.086C175.372 208.163 175.205 209.681 174.183 210.557L171.453 212.897C170.288 213.896 170.518 215.759 171.89 216.445V216.445C173.021 217.011 173.42 218.428 172.75 219.501L170.638 222.879C169.73 224.332 170.159 226.245 171.6 227.171L173.641 228.484C174.708 229.17 174.658 230.746 173.549 231.362V231.362C172.544 231.92 172.385 233.301 173.238 234.073L176.756 237.255C179.115 239.39 178.324 243.273 175.317 244.313L173.789 244.842C171.576 245.608 170.927 248.427 172.584 250.084V250.084C174.583 252.083 173.167 255.5 170.34 255.5H169.493C167.295 255.5 165.938 257.897 167.069 259.781V259.781C168.036 261.393 167.19 263.483 165.373 263.967L165.037 264.057C163.301 264.52 162.534 266.551 163.53 268.045V268.045C164.117 268.926 164.117 270.074 163.53 270.955L162.869 271.946C162.018 273.222 161.892 274.849 162.534 276.241L164.5 280.5" stroke="white" stroke-width="2" stroke-linecap="round"/>
<circle cx="168" cy="173" r="15" fill="#A90404"/>
<circle cx="166" cy="211" r="15" fill="#E1B000"/>
<circle cx="162" cy="251" r="15" fill="#127701"/>
<circle cx="167" cy="172" r="15" fill="#C30000"/>
<circle cx="165" cy="210" r="15" fill="#F9CC2D"/>
<circle cx="161" cy="250" r="15" fill="#18AE00"/>
<path d="M159 160.5C155 163.5 152.94 170.569 154.44 168.069C155.94 165.569 161.94 159.069 165.94 158.569C169.94 158.069 163 157.5 159 160.5Z" fill="#E99C9C"/>
<path d="M157 198.5C153 201.5 150.94 208.569 152.44 206.069C153.94 203.569 159.94 197.069 163.94 196.569C167.94 196.069 161 195.5 157 198.5Z" fill="#FFE999"/>
<path d="M153 238.5C149 241.5 146.94 248.569 148.44 246.069C149.94 243.569 155.94 237.069 159.94 236.569C163.94 236.069 157 235.5 153 238.5Z" fill="#98D88E"/>
</svg>
